<svg xmlns="http://www.w3.org/2000/svg" width="1588" height="390" viewBox="0 0 1588 390">
<style>
    @import url('https://fonts.googleapis.com/css2?family=Poppins:wght@100;200;300;400;500;600;700;800;900&display=swap');
  </style>
  <g id="Group_1" data-name="Group 1" transform="translate(-166 -1165)">
    <path id="Icon_awesome-hand-holding-heart" data-name="Icon awesome-hand-holding-heart" d="M53.5,48.682a3.385,3.385,0,0,0,4.955,0L79.616,26.49A16.108,16.108,0,0,0,78.528,3.4c-5.985-5.189-14.9-4.256-20.385,1.5L55.966,7.173,53.809,4.919c-5.48-5.772-14.4-6.7-20.385-1.516A16.125,16.125,0,0,0,32.336,26.49Zm56.355,15.08a6.433,6.433,0,0,0-8.278,0L83.619,78.122a12.372,12.372,0,0,1-7.773,2.721H52.857a3.109,3.109,0,0,1,0-6.218H68.073a6.47,6.47,0,0,0,6.471-5.169A6.226,6.226,0,0,0,68.4,62.188H37.311a22.871,22.871,0,0,0-14.4,5.111l-9.036,7.326H3.109A3.118,3.118,0,0,0,0,77.734V96.389A3.118,3.118,0,0,0,3.109,99.5H72.445a12.452,12.452,0,0,0,7.773-2.721L109.6,73.264A6.215,6.215,0,0,0,109.853,63.762Z" transform="translate(904 1165.001)" fill="#6b6bf5"/>
    <text id="our_kits_are_developed_with_passion_and_tested_with_professionals_for_accurate_information." data-name="our kits are developed with passion 
and tested with professionals for 
accurate information." transform="translate(960 1365)" font-size="26" font-family="Poppins-Medium, Poppins" font-weight="500" letter-spacing="0.01em" opacity="0.23"><tspan x="-239.616" y="0">our kits are developed with passion </tspan><tspan x="-221.429" y="39">and tested with professionals for </tspan><tspan x="-145.418" y="78">accurate information.</tspan></text>
    <path id="Icon_awesome-headphones" data-name="Icon awesome-headphones" d="M55.143,2.25A55.113,55.113,0,0,0,0,57.393V67.732A6.893,6.893,0,0,0,3.81,73.9l3.1,1.549a24.124,24.124,0,0,0,24.109,23.3h5.17a5.17,5.17,0,0,0,5.17-5.17V55.67a5.17,5.17,0,0,0-5.17-5.17h-5.17a24.051,24.051,0,0,0-17.232,7.243v-.35a41.357,41.357,0,0,1,82.714,0v.35A24.051,24.051,0,0,0,79.268,50.5H74.1a5.17,5.17,0,0,0-5.17,5.17V93.58a5.17,5.17,0,0,0,5.17,5.17h5.17a24.124,24.124,0,0,0,24.109-23.3l3.1-1.549a6.893,6.893,0,0,0,3.81-6.165V57.393A55.113,55.113,0,0,0,55.143,2.25Z" transform="translate(342.857 1162.75)" fill="#6b6bf5"/>
    <text id="You_can_get_support_whenever_you_need_it_with_round-the-clock_assistance_first-rate_dependability_and_complete_offline_mode_reliability." data-name="You can get support whenever you need it with round-the-clock assistance, first-rate dependability, and complete offline mode reliability." transform="translate(166 1338)" font-size="26" font-family="Poppins-Medium, Poppins" font-weight="500" letter-spacing="0.01em" opacity="0.23"><tspan x="8.483" y="27">you can get support whenever you </tspan><tspan x="47.353" y="66">need it with round-the-clock </tspan><tspan x="1.697" y="105">assistance, first-rate dependability, </tspan><tspan x="59.066" y="144">and complete offline mode </tspan><tspan x="175.234" y="183">reliability.</tspan></text>
    <path id="Icon_open-graph" data-name="Icon open-graph" d="M87.436,0,49.75,37.313,37.313,24.875,0,62.561,12.438,75,37.313,49.75,49.75,62.188,99.5,12.438ZM0,87.063V99.5H99.5V87.063Z" transform="translate(1466.796 1165)" fill="#6b6bf5"/>
    <text id="People_that_use_Bright_Platform_are_30_more_productive_and_90_more_likely_to_continue_on_their_path." data-name="People that use Bright Platform are 30% more productive and 90% more likely to continue on their path." transform="translate(1274 1333)" font-size="26" font-family="Poppins-Medium, Poppins" font-weight="500" letter-spacing="0.01em" opacity="0.23"><tspan x="4.804" y="27">people that use bright platform are </tspan><tspan x="38.006" y="66">30% more productive and 90% </tspan><tspan x="33.898" y="105">more likely to continue on their </tspan><tspan x="205.446" y="144">path.</tspan></text>
  </g>
</svg>
